<?xml version="1.0" encoding="utf-8"?>
<!-- Generator: Adobe Illustrator 23.0.3, SVG Export Plug-In . SVG Version: 6.00 Build 0)  -->
<svg version="1.1" xmlns="http://www.w3.org/2000/svg" xmlns:xlink="http://www.w3.org/1999/xlink" x="0px" y="0px"
	 viewBox="0 0 2000 2000" style="enable-background:new 0 0 200 200;" xml:space="preserve">
<style type="text/css">
	.st0{display:none;}
	.st1{display:inline;fill:#FFFFFF;}
	.st2{display:inline;fill:url(#SVGID_1_);}
	.st3{display:none;fill:#FFFFFF;}
	.st4{display:inline;fill:#00F3FF;}
	.st5{display:inline;fill:#00F2FF;}
	.st6{display:inline;fill:#00F1FF;}
	.st7{display:inline;fill:#00F0FF;}
	.st8{display:inline;fill:#00EFFF;}
	.st9{display:inline;fill:#00EEFF;}
	.st10{display:inline;fill:#00EDFF;}
	.st11{display:inline;fill:#01ECFF;}
	.st12{display:inline;fill:#01EBFF;}
	.st13{display:inline;fill:#01EAFF;}
	.st14{display:inline;fill:#01E9FF;}
	.st15{display:inline;fill:#01E8FF;}
	.st16{display:inline;fill:#01E7FF;}
	.st17{display:inline;fill:#01E6FF;}
	.st18{display:inline;fill:#01E5FF;}
	.st19{display:inline;fill:#01E4FF;}
	.st20{display:inline;fill:#01E3FF;}
	.st21{display:inline;fill:#01E2FF;}
	.st22{display:inline;fill:#01E1FF;}
	.st23{display:inline;fill:#01E0FF;}
	.st24{display:inline;fill:#02DFFF;}
	.st25{display:inline;fill:#02DEFF;}
	.st26{display:inline;fill:#02DDFF;}
	.st27{display:inline;fill:#02DCFF;}
	.st28{display:inline;fill:#02DBFF;}
	.st29{display:inline;fill:#02DAFF;}
	.st30{display:inline;fill:#02D9FF;}
	.st31{display:inline;fill:#02D8FF;}
	.st32{display:inline;fill:#02D7FF;}
	.st33{display:inline;fill:#02D6FF;}
	.st34{display:inline;fill:#02D5FF;}
	.st35{display:inline;fill:#02D4FF;}
	.st36{display:inline;fill:#02D3FF;}
	.st37{display:inline;fill:#02D2FF;}
	.st38{display:inline;fill:#03D1FF;}
	.st39{display:inline;fill:#03D0FF;}
	.st40{display:inline;fill:#03CFFF;}
	.st41{display:inline;fill:#03CEFF;}
	.st42{display:inline;fill:#03CDFF;}
	.st43{display:inline;fill:#03CCFF;}
	.st44{display:inline;fill:#03CBFF;}
	.st45{display:inline;fill:#03CAFF;}
	.st46{display:inline;fill:#03C9FF;}
	.st47{display:inline;fill:#03C8FF;}
	.st48{display:inline;fill:#03C7FF;}
	.st49{display:inline;fill:#03C6FF;}
	.st50{display:inline;fill:#03C5FF;}
	.st51{display:inline;fill:#04C4FF;}
	.st52{display:inline;fill:#04C3FF;}
	.st53{display:inline;fill:#04C2FF;}
	.st54{display:inline;fill:#04C1FF;}
	.st55{display:inline;fill:#04C0FF;}
	.st56{display:inline;fill:#04BFFF;}
	.st57{display:inline;fill:#04BEFF;}
	.st58{display:inline;fill:#04BDFF;}
	.st59{display:inline;fill:#04BCFF;}
	.st60{display:inline;fill:#04BBFF;}
	.st61{display:inline;fill:#04BAFF;}
	.st62{display:inline;fill:#04B9FF;}
	.st63{display:inline;fill:#05B8FF;}
	.st64{display:inline;fill:#05B7FF;}
	.st65{display:inline;fill:#05B6FF;}
	.st66{display:inline;fill:#05B5FF;}
	.st67{display:inline;fill:#05B4FF;}
	.st68{display:inline;fill:#05B3FF;}
	.st69{display:inline;fill:#05B2FF;}
	.st70{display:inline;fill:#05B1FF;}
	.st71{display:inline;fill:#05B0FF;}
	.st72{display:inline;fill:#05AFFF;}
	.st73{display:inline;fill:#05AEFF;}
	.st74{display:inline;fill:#05ADFF;}
	.st75{display:inline;fill:#05ACFF;}
	.st76{display:inline;fill:#06ABFF;}
	.st77{display:inline;fill:#06AAFF;}
	.st78{display:inline;fill:#06A9FF;}
	.st79{display:inline;fill:#06A8FF;}
	.st80{display:inline;fill:#06A7FF;}
	.st81{display:inline;fill:#06A6FF;}
	.st82{display:inline;fill:#06A5FF;}
	.st83{display:inline;fill:#06A4FF;}
	.st84{display:inline;fill:#06A3FF;}
	.st85{display:inline;fill:#06A2FF;}
	.st86{display:inline;fill:#06A1FF;}
	.st87{display:inline;fill:#06A0FF;}
	.st88{display:inline;fill:#069FFF;}
	.st89{display:inline;fill:#069EFF;}
	.st90{display:inline;fill:#079DFF;}
	.st91{display:inline;fill:#079CFF;}
	.st92{display:inline;fill:#079BFF;}
	.st93{display:inline;fill:#079AFF;}
	.st94{display:inline;fill:#0799FF;}
	.st95{display:inline;fill:#0798FF;}
	.st96{display:inline;fill:#0797FF;}
	.st97{display:inline;fill:#0796FF;}
	.st98{display:inline;fill:#0795FF;}
	.st99{display:inline;fill:#0794FF;}
	.st100{display:inline;fill:#0793FF;}
	.st101{display:inline;fill:#0792FF;}
	.st102{display:inline;fill:#0791FF;}
	.st103{display:inline;fill:#0890FF;}
	.st104{display:inline;fill:#088FFF;}
	.st105{display:inline;fill:#088EFF;}
	.st106{display:inline;fill:#088DFF;}
	.st107{display:inline;fill:#088CFF;}
	.st108{display:inline;fill:#088BFF;}
	.st109{display:inline;fill:#088AFF;}
	.st110{display:inline;fill:#FF6D00;}
	.st111{display:inline;fill:#FF6E00;}
	.st112{display:inline;fill:#FF6F00;}
	.st113{display:inline;fill:#FF7000;}
	.st114{display:inline;fill:#FF7100;}
	.st115{display:inline;fill:#FF7201;}
	.st116{display:inline;fill:#FF7301;}
	.st117{display:inline;fill:#FF7401;}
	.st118{display:inline;fill:#FF7501;}
	.st119{display:inline;fill:#FF7601;}
	.st120{display:inline;fill:#FF7701;}
	.st121{display:inline;fill:#FF7801;}
	.st122{display:inline;fill:#FF7901;}
	.st123{display:inline;fill:#FF7A01;}
	.st124{display:inline;fill:#FF7B01;}
	.st125{display:inline;fill:#FF7C02;}
	.st126{display:inline;fill:#FF7D02;}
	.st127{display:inline;fill:#FF7E02;}
	.st128{display:inline;fill:#FF7F02;}
	.st129{display:inline;fill:#FF8002;}
	.st130{display:inline;fill:#FF8102;}
	.st131{display:inline;fill:#FF8202;}
	.st132{display:inline;fill:#FF8302;}
	.st133{display:inline;fill:#FF8402;}
	.st134{display:inline;fill:#FF8502;}
	.st135{display:inline;fill:#FF8603;}
	.st136{display:inline;fill:#FF8703;}
	.st137{display:inline;fill:#FF8803;}
	.st138{display:inline;fill:#FF8903;}
	.st139{display:inline;fill:#FF8A03;}
	.st140{display:inline;fill:#FF8B03;}
	.st141{display:inline;fill:#FF8C03;}
	.st142{display:inline;fill:#FF8D03;}
	.st143{display:inline;fill:#FF8E03;}
	.st144{display:inline;fill:#FF8F04;}
	.st145{display:inline;fill:#FF9004;}
	.st146{display:inline;fill:#FF9104;}
	.st147{display:inline;fill:#FF9204;}
	.st148{display:inline;fill:#FF9304;}
	.st149{display:inline;fill:#FF9404;}
	.st150{display:inline;fill:#FF9504;}
	.st151{display:inline;fill:#FF9604;}
	.st152{display:inline;fill:#FF9704;}
	.st153{display:inline;fill:#FF9804;}
	.st154{display:inline;fill:#FF9905;}
	.st155{display:inline;fill:#FF9A05;}
	.st156{display:inline;fill:#FF9B05;}
	.st157{display:inline;fill:#FF9C05;}
	.st158{display:inline;fill:#FF9D05;}
	.st159{display:inline;fill:#FF9E05;}
	.st160{display:inline;fill:#FF9F05;}
	.st161{display:inline;fill:#FFA005;}
	.st162{display:inline;fill:#FFA105;}
	.st163{display:inline;fill:#FFA206;}
	.st164{display:inline;fill:#FFA306;}
	.st165{display:inline;fill:#FFA406;}
	.st166{display:inline;fill:#FFA506;}
	.st167{display:inline;fill:#FFA606;}
	.st168{display:inline;fill:#FFA706;}
	.st169{display:inline;fill:#FFA806;}
	.st170{display:inline;fill:#FFA906;}
	.st171{display:inline;fill:#FFAA06;}
	.st172{display:inline;fill:#FFAB07;}
	.st173{display:inline;fill:#FFAC07;}
	.st174{display:inline;fill:#FFAD07;}
	.st175{display:inline;fill:#FFAE07;}
	.st176{display:inline;fill:#FFAF07;}
	.st177{display:inline;fill:#FFB007;}
	.st178{display:inline;fill:#FFB107;}
	.st179{display:inline;fill:#FFB207;}
	.st180{display:inline;fill:#FFB307;}
	.st181{display:inline;fill:#FFB407;}
	.st182{display:inline;fill:#FFB508;}
	.st183{display:inline;fill:#FFB608;}
	.st184{display:inline;fill:#FFB708;}
	.st185{display:inline;fill:#FFB808;}
	.st186{display:inline;fill:#FFB908;}
	.st187{display:inline;fill:#FFBA08;}
	.st188{display:inline;fill:#FFBB08;}
	.st189{display:inline;fill:#FFBC08;}
	.st190{display:inline;fill:#FFBD08;}
	.st191{display:inline;fill:#FFBE09;}
	.st192{display:inline;fill:#FFBF09;}
	.st193{display:inline;fill:#FFC009;}
	.st194{display:inline;fill:#FFC109;}
	.st195{display:inline;fill:#FFC209;}
	.st196{display:inline;fill:#FFC309;}
	.st197{display:inline;fill:#FFC409;}
	.st198{display:inline;fill:#FFC509;}
	.st199{display:inline;fill:#FFC609;}
	.st200{display:inline;fill:#FFC709;}
	.st201{display:inline;fill:#FFC80A;}
	.st202{display:inline;fill:#FFC90A;}
	.st203{display:inline;fill:#FFCA0A;}
	.st204{display:inline;fill:#FFCB0A;}
	.st205{display:inline;fill:#FFCC0A;}
	.st206{display:inline;fill:#FFCD0A;}
	.st207{display:inline;fill:#FFCE0A;}
	.st208{display:inline;fill:#FFCF0A;}
	.st209{display:inline;fill:#FFD00A;}
	.st210{display:inline;fill:#FFD10A;}
	.st211{display:inline;fill:#FFD20B;}
	.st212{display:inline;fill:#FFD30B;}
	.st213{display:inline;fill:#FFD40B;}
	.st214{display:inline;fill:#FFD50B;}
	.st215{display:inline;fill:#FFD60B;}
</style>
<g id="Layer_1" class="st0">
	<rect class="st1" width="2000" height="2000"/>
	<linearGradient id="SVGID_1_" gradientUnits="userSpaceOnUse" x1="577.5" y1="577.5" x2="1416.1287" y2="1416.1287">
		<stop  offset="0" style="stop-color:#0097FF"/>
		<stop  offset="0.1675" style="stop-color:#0093FF"/>
		<stop  offset="0.3303" style="stop-color:#0087FF"/>
		<stop  offset="0.4911" style="stop-color:#0074FF"/>
		<stop  offset="0.6507" style="stop-color:#0058FF"/>
		<stop  offset="0.8096" style="stop-color:#0035FF"/>
		<stop  offset="0.9658" style="stop-color:#000AFF"/>
		<stop  offset="1" style="stop-color:#0000FF"/>
	</linearGradient>
	<path class="st2" d="M1322.33,1593H677.67C528.18,1593,407,1471.82,407,1322.33V677.67C407,528.18,528.18,407,677.67,407h644.67
		C1471.82,407,1593,528.18,1593,677.67v644.67C1593,1471.82,1471.82,1593,1322.33,1593z"/>
</g>
<g id="Layer_2">
	<path d="M1792.74,802.36c-109.7,0-198.63,88.49-198.63,197.64c0,0,0,0,0,0c0,109.21-88.53,197.74-197.74,197.74
		c-109.21,0-197.74-88.53-197.74-197.74c0-328.61-266.39-595-595-595s-595,266.39-595,595c0,109.15,88.93,197.64,198.63,197.64
		s198.63-88.49,198.63-197.64c0-109.21,88.53-197.74,197.74-197.74S801.37,890.79,801.37,1000c0,328.61,266.39,595,595,595
		s595-266.39,595-595C1991.37,890.85,1902.44,802.36,1792.74,802.36z"/>
	<path class="st3" d="M1095.81,1000c0-158.51-128.49-287-287-287s-287,128.49-287,287c0,52.65,42.89,95.33,95.81,95.33
		s95.81-42.68,95.81-95.33c0-52.68,42.7-95.38,95.38-95.38c101.75-1.17,244.19,190.77,382.38,190.77
		C1138.51,1095.38,1095.81,1052.68,1095.81,1000z"/>
	<g class="st0">
		<circle class="st4" cx="614.33" cy="1017.67" r="114.67"/>
		<circle class="st5" cx="615.13" cy="1010.28" r="114.69"/>
		<circle class="st6" cx="616.1" cy="1003.04" r="114.7"/>
		<circle class="st7" cx="617.23" cy="995.94" r="114.72"/>
		<circle class="st8" cx="618.52" cy="988.98" r="114.74"/>
		<circle class="st9" cx="619.96" cy="982.16" r="114.76"/>
		<circle class="st10" cx="621.56" cy="975.48" r="114.78"/>
		<circle class="st11" cx="623.31" cy="968.94" r="114.8"/>
		<circle class="st12" cx="625.21" cy="962.55" r="114.82"/>
		<circle class="st13" cx="627.26" cy="956.29" r="114.84"/>
		<circle class="st14" cx="629.45" cy="950.18" r="114.86"/>
		<circle class="st15" cx="631.78" cy="944.21" r="114.87"/>
		<circle class="st16" cx="634.24" cy="938.38" r="114.89"/>
		<circle class="st17" cx="636.85" cy="932.69" r="114.91"/>
		<circle class="st18" cx="639.58" cy="927.14" r="114.93"/>
		<circle class="st19" cx="642.44" cy="921.74" r="114.95"/>
		<circle class="st20" cx="645.44" cy="916.48" r="114.97"/>
		<circle class="st21" cx="648.55" cy="911.36" r="114.99"/>
		<circle class="st22" cx="651.79" cy="906.39" r="115.01"/>
		<circle class="st23" cx="655.14" cy="901.56" r="115.03"/>
		<circle class="st24" cx="658.61" cy="896.87" r="115.04"/>
		<circle class="st25" cx="662.2" cy="892.32" r="115.06"/>
		<circle class="st26" cx="665.89" cy="887.92" r="115.08"/>
		<circle class="st27" cx="669.69" cy="883.66" r="115.1"/>
		<circle class="st28" cx="673.6" cy="879.55" r="115.12"/>
		<circle class="st29" cx="677.6" cy="875.58" r="115.14"/>
		<circle class="st30" cx="681.71" cy="871.75" r="115.16"/>
		<circle class="st31" cx="685.92" cy="868.07" r="115.18"/>
		<circle class="st32" cx="690.21" cy="864.54" r="115.19"/>
		<circle class="st33" cx="694.6" cy="861.14" r="115.21"/>
		<circle class="st34" cx="699.08" cy="857.9" r="115.23"/>
		<circle class="st35" cx="703.64" cy="854.79" r="115.25"/>
		<circle class="st36" cx="708.29" cy="851.83" r="115.27"/>
		<circle class="st37" cx="713.01" cy="849.02" r="115.29"/>
		<circle class="st38" cx="717.81" cy="846.35" r="115.31"/>
		<circle class="st39" cx="722.69" cy="843.83" r="115.33"/>
		<circle class="st40" cx="727.64" cy="841.46" r="115.35"/>
		<circle class="st41" cx="732.66" cy="839.23" r="115.36"/>
		<circle class="st42" cx="737.74" cy="837.14" r="115.38"/>
		<circle class="st43" cx="742.89" cy="835.2" r="115.4"/>
		<circle class="st44" cx="748.1" cy="833.41" r="115.42"/>
		<circle class="st45" cx="753.36" cy="831.77" r="115.44"/>
		<circle class="st46" cx="758.69" cy="830.27" r="115.46"/>
		<circle class="st47" cx="764.06" cy="828.92" r="115.48"/>
		<circle class="st48" cx="769.48" cy="827.71" r="115.5"/>
		<circle class="st49" cx="774.95" cy="826.65" r="115.52"/>
		<circle class="st50" cx="780.47" cy="825.74" r="115.53"/>
		<circle class="st51" cx="786.03" cy="824.98" r="115.55"/>
		<circle class="st52" cx="791.62" cy="824.36" r="115.57"/>
		<circle class="st53" cx="797.25" cy="823.89" r="115.59"/>
		<circle class="st54" cx="802.92" cy="823.57" r="115.61"/>
		<circle class="st55" cx="808.61" cy="823.4" r="115.63"/>
		<circle class="st56" cx="814.34" cy="823.38" r="115.65"/>
		<circle class="st56" cx="820.08" cy="823.5" r="115.67"/>
		<circle class="st57" cx="825.85" cy="823.77" r="115.69"/>
		<circle class="st58" cx="831.64" cy="824.19" r="115.7"/>
		<circle class="st59" cx="837.45" cy="824.76" r="115.72"/>
		<circle class="st60" cx="843.27" cy="825.48" r="115.74"/>
		<circle class="st61" cx="849.1" cy="826.35" r="115.76"/>
		<circle class="st62" cx="854.94" cy="827.37" r="115.78"/>
		<circle class="st63" cx="860.79" cy="828.53" r="115.8"/>
		<circle class="st64" cx="866.64" cy="829.85" r="115.82"/>
		<circle class="st65" cx="872.49" cy="831.31" r="115.84"/>
		<circle class="st66" cx="878.33" cy="832.93" r="115.86"/>
		<circle class="st67" cx="884.17" cy="834.69" r="115.87"/>
		<circle class="st68" cx="890.01" cy="836.61" r="115.89"/>
		<circle class="st69" cx="895.83" cy="838.68" r="115.91"/>
		<circle class="st70" cx="901.64" cy="840.89" r="115.93"/>
		<circle class="st71" cx="907.43" cy="843.26" r="115.95"/>
		<circle class="st72" cx="913.2" cy="845.78" r="115.97"/>
		<circle class="st73" cx="918.96" cy="848.45" r="115.99"/>
		<circle class="st74" cx="924.68" cy="851.27" r="116.01"/>
		<circle class="st75" cx="930.38" cy="854.24" r="116.03"/>
		<circle class="st76" cx="936.05" cy="857.36" r="116.04"/>
		<circle class="st77" cx="941.69" cy="860.63" r="116.06"/>
		<circle class="st78" cx="947.29" cy="864.06" r="116.08"/>
		<circle class="st79" cx="952.86" cy="867.64" r="116.1"/>
		<circle class="st80" cx="958.38" cy="871.36" r="116.12"/>
		<circle class="st81" cx="963.86" cy="875.25" r="116.14"/>
		<circle class="st82" cx="969.29" cy="879.28" r="116.16"/>
		<circle class="st83" cx="974.67" cy="883.47" r="116.18"/>
		<circle class="st84" cx="980.01" cy="887.81" r="116.19"/>
		<circle class="st85" cx="985.28" cy="892.3" r="116.21"/>
		<circle class="st86" cx="990.5" cy="896.94" r="116.23"/>
		<circle class="st87" cx="995.66" cy="901.74" r="116.25"/>
		<circle class="st88" cx="1000.76" cy="906.69" r="116.27"/>
		<circle class="st89" cx="1005.79" cy="911.79" r="116.29"/>
		<circle class="st90" cx="1010.75" cy="917.05" r="116.31"/>
		<circle class="st91" cx="1015.64" cy="922.46" r="116.33"/>
		<circle class="st92" cx="1020.45" cy="928.03" r="116.35"/>
		<circle class="st93" cx="1025.19" cy="933.75" r="116.36"/>
		<circle class="st94" cx="1029.85" cy="939.62" r="116.38"/>
		<circle class="st95" cx="1034.43" cy="945.65" r="116.4"/>
		<circle class="st96" cx="1038.92" cy="951.83" r="116.42"/>
		<circle class="st97" cx="1043.33" cy="958.17" r="116.44"/>
		<circle class="st98" cx="1047.64" cy="964.66" r="116.46"/>
		<circle class="st99" cx="1051.86" cy="971.31" r="116.48"/>
		<circle class="st100" cx="1055.99" cy="978.11" r="116.5"/>
		<circle class="st101" cx="1060.01" cy="985.07" r="116.52"/>
		<circle class="st102" cx="1063.94" cy="992.18" r="116.53"/>
		<circle class="st103" cx="1067.76" cy="999.45" r="116.55"/>
		<circle class="st104" cx="1071.47" cy="1006.87" r="116.57"/>
		<circle class="st105" cx="1075.07" cy="1014.45" r="116.59"/>
		<circle class="st106" cx="1078.56" cy="1022.19" r="116.61"/>
		<circle class="st107" cx="1081.94" cy="1030.08" r="116.63"/>
		<circle class="st108" cx="1085.2" cy="1038.13" r="116.65"/>
		<circle class="st109" cx="1088.33" cy="1046.33" r="116.67"/>
	</g>
	<g class="st0">
		<circle class="st110" cx="1384.33" cy="991.33" r="114.67"/>
		<circle class="st111" cx="1382.87" cy="998.74" r="114.69"/>
		<circle class="st112" cx="1381.28" cy="1005.99" r="114.7"/>
		<circle class="st113" cx="1379.56" cy="1013.07" r="114.72"/>
		<circle class="st114" cx="1377.71" cy="1019.99" r="114.74"/>
		<circle class="st115" cx="1375.75" cy="1026.75" r="114.76"/>
		<circle class="st116" cx="1373.66" cy="1033.34" r="114.78"/>
		<circle class="st117" cx="1371.45" cy="1039.78" r="114.8"/>
		<circle class="st118" cx="1369.13" cy="1046.06" r="114.82"/>
		<circle class="st119" cx="1366.7" cy="1052.17" r="114.84"/>
		<circle class="st120" cx="1364.16" cy="1058.13" r="114.86"/>
		<circle class="st121" cx="1361.51" cy="1063.93" r="114.87"/>
		<circle class="st122" cx="1358.76" cy="1069.58" r="114.89"/>
		<circle class="st123" cx="1355.9" cy="1075.06" r="114.91"/>
		<circle class="st124" cx="1352.95" cy="1080.39" r="114.93"/>
		<circle class="st125" cx="1349.9" cy="1085.57" r="114.95"/>
		<circle class="st126" cx="1346.75" cy="1090.59" r="114.97"/>
		<circle class="st127" cx="1343.51" cy="1095.46" r="114.99"/>
		<circle class="st128" cx="1340.19" cy="1100.17" r="115.01"/>
		<circle class="st129" cx="1336.77" cy="1104.73" r="115.03"/>
		<circle class="st130" cx="1333.27" cy="1109.14" r="115.04"/>
		<circle class="st131" cx="1329.7" cy="1113.4" r="115.06"/>
		<circle class="st132" cx="1326.04" cy="1117.5" r="115.08"/>
		<circle class="st133" cx="1322.3" cy="1121.46" r="115.1"/>
		<circle class="st134" cx="1318.5" cy="1125.26" r="115.12"/>
		<circle class="st135" cx="1314.62" cy="1128.92" r="115.14"/>
		<circle class="st136" cx="1310.67" cy="1132.43" r="115.16"/>
		<circle class="st137" cx="1306.66" cy="1135.79" r="115.18"/>
		<circle class="st138" cx="1302.58" cy="1139.01" r="115.19"/>
		<circle class="st139" cx="1298.44" cy="1142.08" r="115.21"/>
		<circle class="st140" cx="1294.25" cy="1145" r="115.23"/>
		<circle class="st141" cx="1289.99" cy="1147.77" r="115.25"/>
		<circle class="st142" cx="1285.69" cy="1150.41" r="115.27"/>
		<circle class="st143" cx="1281.33" cy="1152.9" r="115.29"/>
		<circle class="st144" cx="1276.93" cy="1155.24" r="115.31"/>
		<circle class="st145" cx="1272.48" cy="1157.45" r="115.33"/>
		<circle class="st146" cx="1267.99" cy="1159.51" r="115.35"/>
		<circle class="st147" cx="1263.46" cy="1161.43" r="115.36"/>
		<circle class="st148" cx="1258.89" cy="1163.21" r="115.38"/>
		<circle class="st149" cx="1254.28" cy="1164.85" r="115.4"/>
		<circle class="st150" cx="1249.64" cy="1166.35" r="115.42"/>
		<circle class="st151" cx="1244.97" cy="1167.71" r="115.44"/>
		<circle class="st152" cx="1240.28" cy="1168.93" r="115.46"/>
		<circle class="st153" cx="1235.56" cy="1170.02" r="115.48"/>
		<circle class="st154" cx="1230.81" cy="1170.97" r="115.5"/>
		<circle class="st155" cx="1226.05" cy="1171.78" r="115.52"/>
		<circle class="st156" cx="1221.27" cy="1172.46" r="115.53"/>
		<circle class="st157" cx="1216.48" cy="1173" r="115.55"/>
		<circle class="st158" cx="1211.67" cy="1173.41" r="115.57"/>
		<circle class="st159" cx="1206.85" cy="1173.68" r="115.59"/>
		<circle class="st160" cx="1202.03" cy="1173.82" r="115.61"/>
		<circle class="st161" cx="1197.2" cy="1173.83" r="115.63"/>
		<circle class="st162" cx="1192.37" cy="1173.71" r="115.65"/>
		<circle class="st162" cx="1187.54" cy="1173.46" r="115.67"/>
		<circle class="st163" cx="1182.72" cy="1173.07" r="115.69"/>
		<circle class="st164" cx="1177.9" cy="1172.56" r="115.7"/>
		<circle class="st165" cx="1173.08" cy="1171.92" r="115.72"/>
		<circle class="st166" cx="1168.28" cy="1171.15" r="115.74"/>
		<circle class="st167" cx="1163.5" cy="1170.25" r="115.76"/>
		<circle class="st168" cx="1158.73" cy="1169.22" r="115.78"/>
		<circle class="st169" cx="1153.97" cy="1168.07" r="115.8"/>
		<circle class="st170" cx="1149.24" cy="1166.79" r="115.82"/>
		<circle class="st171" cx="1144.54" cy="1165.39" r="115.84"/>
		<circle class="st172" cx="1139.86" cy="1163.86" r="115.86"/>
		<circle class="st173" cx="1135.2" cy="1162.21" r="115.87"/>
		<circle class="st174" cx="1130.58" cy="1160.43" r="115.89"/>
		<circle class="st175" cx="1126" cy="1158.54" r="115.91"/>
		<circle class="st176" cx="1121.45" cy="1156.52" r="115.93"/>
		<circle class="st177" cx="1116.94" cy="1154.37" r="115.95"/>
		<circle class="st178" cx="1112.47" cy="1152.11" r="115.97"/>
		<circle class="st179" cx="1108.05" cy="1149.73" r="115.99"/>
		<circle class="st180" cx="1103.67" cy="1147.23" r="116.01"/>
		<circle class="st181" cx="1099.34" cy="1144.61" r="116.03"/>
		<circle class="st182" cx="1095.07" cy="1141.87" r="116.04"/>
		<circle class="st183" cx="1090.85" cy="1139.01" r="116.06"/>
		<circle class="st184" cx="1086.68" cy="1136.04" r="116.08"/>
		<circle class="st185" cx="1082.58" cy="1132.95" r="116.1"/>
		<circle class="st186" cx="1078.54" cy="1129.74" r="116.12"/>
		<circle class="st187" cx="1074.56" cy="1126.42" r="116.14"/>
		<circle class="st188" cx="1070.65" cy="1122.98" r="116.16"/>
		<circle class="st189" cx="1066.81" cy="1119.44" r="116.18"/>
		<circle class="st190" cx="1063.05" cy="1115.77" r="116.19"/>
		<circle class="st191" cx="1059.36" cy="1112" r="116.21"/>
		<circle class="st192" cx="1055.74" cy="1108.11" r="116.23"/>
		<circle class="st193" cx="1052.21" cy="1104.11" r="116.25"/>
		<circle class="st194" cx="1048.76" cy="1100.01" r="116.27"/>
		<circle class="st195" cx="1045.39" cy="1095.79" r="116.29"/>
		<circle class="st196" cx="1042.12" cy="1091.46" r="116.31"/>
		<circle class="st197" cx="1038.93" cy="1087.03" r="116.33"/>
		<circle class="st198" cx="1035.84" cy="1082.48" r="116.35"/>
		<circle class="st199" cx="1032.84" cy="1077.83" r="116.36"/>
		<circle class="st200" cx="1029.94" cy="1073.07" r="116.38"/>
		<circle class="st201" cx="1027.14" cy="1068.21" r="116.4"/>
		<circle class="st202" cx="1024.45" cy="1063.24" r="116.42"/>
		<circle class="st203" cx="1021.86" cy="1058.17" r="116.44"/>
		<circle class="st204" cx="1019.38" cy="1052.99" r="116.46"/>
		<circle class="st205" cx="1017.01" cy="1047.7" r="116.48"/>
		<circle class="st206" cx="1014.76" cy="1042.32" r="116.5"/>
		<circle class="st207" cx="1012.62" cy="1036.83" r="116.52"/>
		<circle class="st208" cx="1010.6" cy="1031.24" r="116.53"/>
		<circle class="st209" cx="1008.7" cy="1025.55" r="116.55"/>
		<circle class="st210" cx="1006.92" cy="1019.77" r="116.57"/>
		<circle class="st211" cx="1005.28" cy="1013.88" r="116.59"/>
		<circle class="st212" cx="1003.76" cy="1007.89" r="116.61"/>
		<circle class="st213" cx="1002.37" cy="1001.8" r="116.63"/>
		<circle class="st214" cx="1001.12" cy="995.62" r="116.65"/>
		<circle class="st215" cx="1000" cy="989.33" r="116.67"/>
	</g>
</g>
<g id="Layer_3">
</g>
<g id="Layer_4">
</g>
</svg>
