<?xml version="1.0" standalone="no"?>
<!DOCTYPE svg PUBLIC "-//W3C//DTD SVG 20010904//EN"
 "http://www.w3.org/TR/2001/REC-SVG-20010904/DTD/svg10.dtd">
<svg version="1.0" xmlns="http://www.w3.org/2000/svg"
 width="8192.000000pt" height="8192.000000pt" viewBox="0 0 8192.000000 8192.000000"
 preserveAspectRatio="xMidYMid meet">
<metadata>
Created by potrace 1.11, written by Peter Selinger 2001-2013
</metadata>
<g transform="translate(0.000000,8192.000000) scale(0.100000,-0.100000)"
fill="#000000" stroke="none">
<path d="M25447 63694 c-1 -1 -121 -5 -267 -8 -146 -4 -308 -8 -360 -11 -146
-6 -329 -16 -385 -20 -48 -3 -223 -15 -295 -20 -51 -3 -219 -16 -260 -20 -19
-2 -72 -6 -117 -10 -46 -3 -91 -8 -101 -10 -10 -2 -61 -6 -113 -10 -52 -4 -96
-8 -99 -10 -3 -1 -41 -6 -84 -10 -43 -4 -86 -8 -95 -10 -9 -1 -50 -6 -91 -10
-41 -4 -82 -9 -91 -10 -9 -2 -40 -6 -70 -10 -105 -12 -198 -24 -239 -30 -27
-4 -85 -12 -152 -20 -24 -3 -56 -8 -71 -11 -30 -6 -43 -8 -142 -19 -33 -4 -63
-9 -67 -11 -4 -3 -24 -7 -45 -9 -21 -2 -53 -6 -70 -9 -18 -3 -45 -8 -60 -11
-16 -2 -84 -13 -153 -25 -69 -12 -138 -23 -155 -26 -35 -5 -131 -22 -160 -28
-11 -2 -96 -18 -190 -36 -93 -17 -172 -33 -175 -35 -3 -2 -26 -6 -50 -10 -25
-3 -65 -11 -90 -17 -25 -5 -54 -12 -65 -14 -11 -2 -30 -6 -42 -9 -38 -8 -110
-24 -138 -29 -105 -21 -487 -111 -725 -172 -162 -41 -302 -77 -310 -79 -28 -6
-314 -86 -435 -122 -66 -19 -127 -36 -135 -38 -102 -24 -868 -274 -1150 -375
-188 -67 -539 -198 -565 -210 -11 -5 -74 -30 -140 -55 -924 -355 -2049 -895
-2965 -1423 -91 -52 -181 -104 -200 -115 -88 -49 -465 -278 -596 -362 -18 -11
-85 -54 -150 -95 -165 -104 -663 -438 -814 -545 -303 -215 -760 -552 -890
-657 -19 -15 -96 -76 -170 -134 -74 -59 -149 -118 -166 -133 -18 -14 -49 -39
-70 -56 -88 -69 -623 -522 -644 -545 -3 -3 -36 -32 -75 -65 -38 -33 -77 -67
-85 -75 -9 -8 -59 -53 -111 -100 -51 -47 -125 -114 -163 -150 -39 -36 -80 -74
-92 -85 -283 -260 -815 -792 -1119 -1120 -60 -65 -121 -130 -135 -145 -14 -14
-79 -87 -145 -161 -66 -73 -122 -136 -125 -139 -3 -3 -36 -41 -75 -85 -38 -44
-72 -82 -75 -85 -3 -3 -39 -45 -80 -94 -41 -50 -86 -101 -99 -115 -12 -14 -93
-111 -178 -216 -86 -104 -171 -208 -189 -230 -46 -56 -164 -205 -194 -245 -14
-18 -50 -65 -81 -104 -107 -137 -217 -285 -381 -510 -65 -88 -121 -165 -126
-171 -4 -5 -27 -37 -49 -70 -23 -33 -73 -105 -112 -160 -153 -218 -601 -897
-601 -910 0 -2 -17 -30 -38 -62 -91 -138 -373 -613 -527 -888 -94 -168 -178
-322 -221 -403 -27 -51 -73 -139 -103 -195 -67 -128 -296 -585 -346 -692 -21
-44 -62 -132 -92 -195 -30 -63 -86 -185 -125 -270 -38 -85 -80 -177 -92 -205
-12 -27 -58 -133 -101 -235 -43 -102 -86 -203 -95 -225 -30 -69 -156 -385
-200 -500 -23 -60 -47 -121 -53 -135 -5 -14 -11 -29 -13 -35 -1 -5 -39 -109
-84 -230 -87 -236 -271 -778 -344 -1015 -24 -80 -58 -190 -75 -245 -17 -55
-33 -109 -36 -120 -2 -11 -13 -51 -25 -90 -40 -132 -174 -622 -185 -678 -2
-10 -7 -27 -10 -37 -3 -10 -7 -27 -10 -37 -2 -10 -17 -72 -34 -138 -16 -66
-51 -212 -76 -325 -47 -208 -52 -226 -59 -257 -15 -63 -176 -883 -181 -928 -5
-35 -10 -67 -19 -115 -3 -19 -8 -48 -11 -65 -3 -16 -10 -59 -16 -95 -6 -36
-12 -74 -14 -85 -22 -154 -57 -386 -60 -405 -2 -14 -7 -50 -10 -80 -3 -30 -7
-66 -10 -80 -5 -28 -7 -46 -30 -235 -9 -71 -18 -146 -21 -165 -5 -37 -9 -77
-19 -175 -6 -65 -12 -125 -19 -195 -3 -25 -8 -76 -11 -115 -4 -38 -8 -92 -11
-120 -2 -27 -6 -75 -9 -105 -2 -30 -7 -86 -10 -125 -2 -38 -7 -106 -10 -150
-15 -201 -20 -297 -30 -485 -22 -453 -33 -1234 -20 -1465 11 -197 21 -337 30
-420 12 -114 43 -357 50 -398 10 -59 25 -144 30 -177 3 -19 19 -100 36 -180
17 -80 32 -156 35 -170 3 -14 12 -52 20 -85 8 -33 20 -80 25 -105 10 -42 69
-250 90 -315 144 -460 272 -780 465 -1168 70 -141 172 -330 221 -412 7 -11 15
-27 19 -35 11 -22 240 -386 253 -402 6 -7 26 -35 45 -63 19 -27 52 -75 73
-105 43 -62 257 -344 284 -375 10 -11 37 -42 60 -70 326 -392 681 -740 1080
-1061 142 -114 159 -128 249 -193 30 -22 60 -44 65 -49 66 -55 556 -372 576
-372 5 0 9 -4 9 -8 0 -4 12 -13 28 -19 15 -7 34 -17 42 -23 69 -48 439 -238
620 -319 63 -28 123 -56 132 -61 52 -29 407 -167 573 -222 50 -16 97 -32 105
-35 8 -3 20 -7 25 -9 6 -1 48 -15 95 -29 155 -49 492 -138 600 -159 14 -2 69
-14 124 -25 188 -40 503 -90 671 -107 28 -2 73 -7 100 -10 83 -9 145 -13 265
-20 63 -3 126 -8 140 -10 28 -4 577 -4 685 0 74 4 257 16 315 21 19 2 67 6
105 9 39 4 86 8 105 11 19 3 58 7 85 10 28 3 61 8 75 10 14 2 45 7 70 10 25 3
56 8 70 10 14 3 41 7 60 10 188 30 474 89 655 136 83 22 157 41 166 43 48 12
298 89 424 131 159 54 470 175 600 235 39 17 86 39 105 47 78 35 342 166 448
223 385 207 904 555 1202 807 293 248 350 300 570 522 207 209 299 309 453
493 452 543 833 1157 1106 1783 29 66 61 138 71 160 21 47 126 327 164 435 53
155 161 520 181 615 3 11 12 49 20 85 9 36 20 83 25 105 13 57 68 333 74 375
2 19 14 96 25 170 11 74 23 162 26 195 3 33 8 71 10 85 7 46 14 130 31 355 2
28 6 169 8 315 9 451 22 732 41 890 2 14 6 54 9 90 4 36 11 94 16 130 5 36 12
83 15 105 3 22 10 69 16 105 6 36 12 79 15 95 2 17 8 53 14 80 5 28 12 64 15
82 3 17 17 85 31 150 33 153 31 141 44 193 6 25 15 63 20 85 45 211 272 888
350 1046 5 9 25 56 45 105 42 103 234 496 292 599 22 39 52 93 68 120 145 258
395 635 567 855 33 41 71 91 86 110 29 37 169 208 187 226 5 7 39 45 75 85
248 281 584 605 855 825 82 66 159 128 190 151 17 12 66 49 110 82 44 33 91
69 105 79 35 27 327 223 370 249 19 11 84 50 144 87 60 36 111 66 113 66 2 0
20 11 41 23 73 46 560 297 576 297 3 0 38 15 78 34 298 139 776 307 1153 406
106 27 321 78 365 85 19 3 51 10 70 15 19 5 53 11 75 15 23 3 52 8 65 11 50
10 107 20 175 30 17 2 77 10 135 18 58 9 132 18 165 22 33 3 74 8 90 10 17 2
64 6 105 10 41 3 91 7 110 10 213 22 923 22 1116 -1 22 -2 73 -7 114 -9 41 -3
93 -7 115 -10 38 -5 181 -22 270 -32 22 -3 65 -9 95 -15 30 -6 71 -12 90 -15
209 -29 627 -124 900 -205 287 -86 693 -234 920 -337 36 -16 88 -39 115 -52
100 -45 383 -189 485 -247 105 -60 120 -68 240 -138 171 -101 503 -326 675
-459 103 -79 341 -272 365 -295 9 -9 36 -33 60 -54 238 -206 546 -519 754
-767 39 -47 73 -87 76 -90 5 -4 49 -59 137 -170 7 -8 26 -33 42 -55 17 -22 36
-46 42 -53 22 -27 228 -322 290 -417 331 -504 629 -1119 822 -1696 51 -151
141 -450 151 -502 3 -12 18 -76 35 -142 24 -97 65 -286 86 -400 47 -245 92
-615 110 -895 5 -79 14 -448 21 -865 3 -198 7 -396 9 -440 9 -236 17 -397 20
-455 9 -156 16 -259 20 -315 2 -33 7 -94 10 -135 3 -41 7 -97 10 -125 2 -27 7
-84 10 -125 3 -41 8 -95 10 -120 3 -25 7 -70 10 -100 3 -30 7 -75 10 -100 2
-25 7 -70 10 -100 3 -30 8 -71 10 -90 2 -19 7 -60 10 -90 3 -30 13 -109 21
-175 8 -66 17 -140 19 -165 3 -25 8 -58 10 -75 10 -64 16 -112 21 -160 3 -27
7 -57 9 -65 3 -8 7 -33 10 -55 3 -22 7 -53 10 -70 3 -16 7 -50 10 -75 3 -25
10 -67 15 -95 5 -27 12 -68 15 -90 4 -32 45 -279 59 -360 6 -30 18 -97 23
-120 2 -11 6 -36 9 -55 5 -35 8 -51 19 -105 13 -65 45 -227 50 -253 65 -370
267 -1198 445 -1822 277 -972 722 -2180 1111 -3018 22 -46 39 -86 39 -88 0 -3
22 -51 48 -107 27 -56 71 -149 98 -207 167 -361 459 -923 716 -1380 81 -146
162 -287 179 -315 16 -27 32 -58 36 -67 3 -10 9 -18 14 -18 5 0 9 -4 9 -9 0
-5 18 -39 40 -75 22 -36 40 -70 40 -75 0 -5 4 -11 8 -13 4 -1 21 -25 37 -53
15 -27 84 -140 153 -250 421 -676 881 -1335 1367 -1960 136 -174 391 -493 404
-505 3 -3 24 -27 46 -55 22 -27 69 -84 105 -126 36 -41 85 -100 110 -129 25
-29 50 -58 55 -64 6 -6 39 -45 75 -86 57 -66 343 -386 425 -475 189 -206 309
-332 545 -570 391 -395 668 -659 1010 -965 46 -41 94 -84 105 -95 12 -11 51
-45 86 -75 35 -30 66 -57 69 -60 3 -3 52 -45 110 -94 58 -50 110 -95 115 -100
6 -6 30 -27 55 -47 25 -20 55 -45 67 -55 12 -11 30 -26 40 -34 10 -8 79 -65
153 -126 231 -189 735 -582 826 -644 12 -8 87 -62 165 -120 484 -355 1250
-864 1684 -1119 50 -29 124 -73 165 -98 41 -25 93 -55 115 -68 22 -12 103 -58
180 -102 206 -119 200 -115 670 -368 94 -51 801 -405 808 -405 3 0 60 -27 128
-59 129 -61 548 -251 555 -251 2 0 27 -11 56 -24 29 -13 98 -43 153 -66 55
-23 118 -50 140 -60 22 -10 162 -66 310 -125 149 -58 279 -110 290 -115 11 -5
38 -16 60 -23 72 -25 410 -148 430 -157 123 -55 1055 -352 1420 -454 72 -20
153 -43 180 -51 117 -34 368 -98 620 -160 149 -36 279 -68 290 -70 11 -3 63
-15 115 -26 52 -11 102 -22 110 -24 45 -11 168 -37 185 -40 11 -2 52 -10 90
-19 39 -8 82 -17 95 -19 14 -3 59 -12 100 -20 41 -9 86 -18 100 -20 66 -12
148 -28 170 -32 14 -3 63 -12 110 -20 47 -8 96 -17 110 -20 13 -2 40 -7 60
-10 20 -3 47 -8 60 -10 14 -3 41 -8 60 -11 19 -3 60 -9 90 -14 30 -5 71 -12
90 -15 19 -3 46 -7 60 -10 14 -2 43 -7 65 -10 22 -3 54 -7 70 -10 53 -8 144
-21 205 -30 39 -5 80 -11 195 -25 44 -6 94 -12 110 -15 17 -2 53 -7 80 -10 28
-3 84 -10 125 -15 41 -5 100 -12 130 -15 30 -3 71 -7 90 -10 40 -5 94 -11 195
-21 115 -11 126 -12 215 -18 47 -4 99 -9 117 -11 17 -3 73 -7 125 -10 51 -3
111 -7 133 -10 64 -7 370 -25 690 -40 505 -25 1450 -24 1960 0 402 19 612 31
700 40 22 2 76 6 120 10 44 3 103 8 130 10 28 2 82 7 120 10 39 3 86 8 105 10
19 2 67 7 105 10 39 3 81 8 95 10 14 2 57 6 95 10 39 3 81 8 95 10 14 2 52 6
85 10 33 3 74 8 90 10 17 3 50 7 75 9 94 11 211 26 320 42 19 3 53 7 75 10 22
3 81 11 130 19 50 8 110 17 134 20 24 3 139 21 255 40 264 44 254 42 356 61
47 9 96 18 110 20 14 3 59 11 100 19 41 8 89 17 105 20 17 2 45 9 63 14 18 5
35 10 37 10 7 -1 84 12 110 18 11 2 31 6 45 9 14 3 45 10 70 15 25 6 56 13 70
15 49 9 425 94 460 104 19 6 49 13 65 16 139 24 1193 310 1345 364 14 5 79 25
145 45 238 73 810 266 1040 353 223 83 544 206 570 217 17 8 113 47 215 89
172 69 419 174 535 226 28 12 64 28 80 35 230 99 632 290 1020 486 323 163
375 190 615 322 80 44 168 92 195 107 28 15 68 38 90 50 22 13 60 34 85 48
213 119 669 394 950 572 122 77 708 468 825 551 39 27 78 54 88 61 11 7 103
74 205 148 103 75 203 147 222 160 19 14 37 28 40 31 3 3 48 37 100 76 116 87
256 193 330 252 30 24 70 55 89 70 62 48 555 452 602 493 15 13 51 43 80 68
64 54 208 180 303 264 38 33 77 68 86 76 17 15 147 132 205 185 444 405 1050
1012 1426 1429 30 33 61 67 69 76 8 8 53 58 99 110 47 52 87 97 90 100 3 3 49
55 101 115 52 61 104 121 117 135 82 93 339 405 511 620 112 140 209 262 215
270 7 8 80 105 162 215 83 109 155 206 162 215 34 42 201 276 312 435 156 222
128 182 305 447 213 319 226 339 226 349 0 5 3 9 8 9 4 0 12 9 17 20 6 11 78
129 161 262 83 134 166 268 183 298 18 30 55 93 82 140 28 47 61 103 74 125
12 22 46 81 75 130 75 129 330 592 330 599 0 2 23 45 51 97 57 104 326 640
382 759 19 41 57 122 85 180 27 58 60 128 72 155 12 28 34 75 47 105 14 30 59
132 100 225 41 94 81 184 88 200 27 60 144 343 184 445 23 58 46 114 51 125
12 26 147 374 170 440 9 28 50 140 89 250 73 201 230 657 236 685 2 8 12 42
23 75 58 175 160 516 212 705 18 63 38 135 46 160 7 25 27 97 43 160 17 63 37
142 46 175 16 60 133 533 140 569 3 10 18 77 34 150 34 145 119 551 127 606 3
19 7 37 9 40 2 3 6 26 10 50 4 25 19 113 35 195 27 139 61 336 75 429 3 21 7
48 10 60 3 12 7 39 9 61 3 22 8 54 11 70 10 58 15 90 20 140 3 28 8 57 10 65
2 8 7 39 10 69 4 30 8 62 10 71 2 9 6 41 10 71 3 30 8 68 12 84 3 17 7 41 8
55 3 28 13 116 20 170 2 19 7 60 11 90 3 30 8 69 10 85 5 42 13 116 19 175 3
28 7 71 10 98 3 26 7 72 10 102 3 30 7 80 10 110 7 69 12 135 20 230 3 41 8
93 10 115 2 22 7 85 10 140 3 55 8 120 10 145 2 25 7 101 10 170 4 69 8 154
10 190 16 275 25 667 25 1045 1 370 -5 512 -36 838 -22 237 -86 640 -131 827
-8 36 -17 76 -20 90 -2 14 -13 61 -25 105 -11 44 -22 91 -24 105 -3 14 -14 54
-25 90 -11 36 -22 73 -24 83 -11 53 -79 263 -165 512 -21 61 -125 325 -150
380 -10 22 -39 87 -65 145 -272 607 -659 1219 -1109 1755 -119 141 -94 114
-231 261 -123 132 -261 271 -382 384 -140 131 -282 255 -383 336 -41 32 -77
62 -80 65 -17 22 -369 277 -527 382 -333 222 -784 471 -1098 606 -66 29 -133
58 -150 66 -16 7 -41 17 -55 23 -14 5 -41 17 -61 26 -128 56 -457 168 -744
255 -168 50 -589 149 -710 166 -22 4 -47 8 -55 10 -8 2 -28 6 -45 9 -58 9
-180 28 -205 32 -33 5 -170 22 -240 29 -30 3 -73 8 -95 10 -99 11 -248 22
-415 31 -93 5 -591 4 -680 -1 -235 -13 -288 -17 -315 -20 -16 -3 -59 -7 -95
-10 -113 -10 -241 -24 -273 -31 -11 -2 -39 -6 -62 -9 -38 -5 -156 -23 -200
-30 -31 -5 -338 -66 -360 -71 -11 -3 -29 -7 -40 -8 -35 -6 -305 -75 -415 -107
-522 -150 -1120 -395 -1545 -634 -27 -15 -86 -48 -130 -73 -408 -230 -900
-581 -1231 -877 -6 -5 -49 -44 -95 -85 -181 -161 -541 -531 -684 -703 -22 -27
-48 -58 -59 -70 -46 -55 -176 -218 -217 -272 -24 -33 -46 -62 -49 -65 -3 -3
-13 -16 -22 -30 -10 -14 -34 -47 -53 -75 -151 -210 -383 -578 -482 -765 -22
-41 -46 -86 -53 -100 -7 -14 -17 -32 -21 -40 -24 -44 -143 -289 -184 -380 -26
-58 -55 -124 -66 -147 -10 -24 -19 -45 -19 -48 0 -4 -9 -27 -21 -53 -40 -92
-47 -108 -73 -182 -15 -41 -32 -86 -37 -98 -5 -13 -19 -52 -30 -85 -11 -34
-23 -69 -26 -77 -3 -8 -7 -17 -8 -20 0 -3 -15 -50 -32 -105 -54 -170 -123
-417 -137 -489 -3 -11 -16 -68 -30 -126 -24 -101 -53 -243 -62 -305 -3 -16 -7
-41 -10 -55 -3 -14 -7 -34 -9 -45 -5 -33 -18 -119 -20 -135 -1 -8 -5 -33 -8
-55 -4 -22 -9 -60 -12 -85 -3 -25 -7 -61 -10 -80 -2 -19 -7 -60 -10 -90 -3
-30 -8 -71 -10 -90 -3 -19 -8 -80 -11 -135 -3 -55 -8 -118 -9 -140 -2 -22 -6
-148 -9 -280 -8 -342 -18 -644 -21 -684 -2 -18 -6 -71 -10 -117 -3 -46 -8 -94
-10 -106 -2 -13 -6 -52 -10 -88 -3 -36 -7 -83 -10 -105 -10 -81 -16 -121 -20
-145 -3 -14 -7 -38 -9 -55 -9 -58 -18 -120 -22 -140 -3 -11 -7 -36 -10 -55 -9
-59 -47 -252 -60 -302 -3 -13 -7 -34 -10 -48 -3 -14 -12 -52 -20 -85 -9 -33
-17 -67 -19 -75 -13 -58 -69 -260 -90 -330 -14 -47 -32 -105 -40 -130 -32
-108 -152 -441 -188 -522 -8 -18 -38 -89 -67 -158 -105 -251 -370 -767 -471
-918 -16 -24 -29 -45 -29 -48 0 -5 -22 -40 -160 -249 -106 -162 -363 -509
-435 -589 -6 -6 -35 -40 -64 -76 -29 -36 -58 -69 -65 -75 -6 -5 -22 -23 -35
-40 -64 -84 -384 -414 -542 -560 -87 -80 -206 -186 -249 -221 -19 -16 -37 -31
-40 -34 -3 -3 -52 -44 -110 -91 -579 -468 -1260 -867 -1942 -1138 -168 -66
-411 -153 -538 -191 -58 -17 -112 -34 -120 -37 -8 -3 -19 -7 -25 -8 -5 -1 -55
-15 -110 -30 -183 -50 -445 -112 -555 -131 -14 -3 -86 -15 -160 -29 -74 -13
-159 -27 -189 -30 -30 -3 -57 -7 -60 -9 -3 -2 -37 -7 -76 -10 -38 -4 -81 -9
-95 -11 -32 -5 -115 -14 -205 -21 -38 -3 -83 -7 -100 -9 -133 -17 -689 -24
-930 -12 -207 11 -257 15 -435 33 -159 16 -312 38 -495 70 -77 13 -153 26
-170 29 -16 3 -41 8 -55 11 -14 3 -36 8 -50 10 -59 10 -514 126 -605 154 -576
178 -1103 404 -1575 678 -52 30 -108 62 -125 72 -296 171 -847 569 -1071 775
-6 5 -39 35 -74 65 -287 252 -619 600 -876 920 -141 176 -363 481 -446 615
-14 22 -45 72 -70 110 -124 192 -339 589 -445 820 -18 39 -50 110 -73 158 -22
49 -40 94 -40 101 0 6 -4 16 -9 22 -10 11 -134 335 -184 484 -103 304 -230
786 -261 991 -3 20 -7 42 -10 50 -3 8 -7 32 -10 54 -3 22 -8 54 -12 70 -10 50
-48 329 -59 436 -3 30 -8 72 -10 94 -4 36 -7 72 -20 255 -6 82 -14 418 -21
855 -3 215 -7 426 -9 470 -15 354 -25 542 -40 739 -2 28 -7 92 -10 141 -3 50
-8 106 -10 125 -2 19 -7 73 -10 120 -3 47 -8 96 -10 110 -3 14 -7 61 -10 105
-3 44 -8 91 -10 105 -2 14 -6 57 -9 95 -4 39 -8 86 -11 105 -2 19 -7 58 -10
85 -3 28 -10 86 -16 130 -16 127 -18 147 -24 197 -5 52 -13 110 -20 148 -2 14
-7 52 -10 85 -4 33 -8 67 -10 75 -3 8 -7 33 -10 55 -14 102 -17 122 -21 150
-7 51 -24 155 -44 275 -10 63 -22 131 -25 150 -3 19 -19 109 -35 200 -17 91
-32 179 -35 195 -3 17 -17 84 -30 150 -14 66 -27 134 -29 150 -6 38 -15 81
-26 125 -5 19 -11 49 -14 65 -10 54 -54 256 -91 410 -19 83 -37 159 -39 170
-3 11 -14 58 -26 105 -11 47 -23 92 -25 100 -56 231 -169 646 -240 885 -20 66
-37 128 -40 137 -9 38 -110 356 -194 613 -105 319 -323 928 -380 1060 -5 11
-48 119 -96 240 -47 121 -97 244 -111 273 -13 29 -24 55 -24 58 0 3 -23 58
-51 122 -28 64 -57 133 -66 152 -8 19 -21 49 -28 65 -8 17 -25 55 -38 85 -83
186 -124 275 -250 545 -108 230 -396 799 -520 1025 -67 124 -83 152 -117 215
-17 33 -47 85 -66 116 -19 31 -34 60 -34 64 0 4 -8 19 -19 33 -10 15 -31 50
-45 77 -15 28 -31 57 -36 65 -12 18 -126 213 -150 255 -155 272 -633 1013
-887 1375 -32 47 -76 110 -98 140 -164 235 -519 711 -699 936 -23 28 -54 68
-71 89 -30 39 -186 232 -254 314 -72 88 -339 404 -376 445 -5 6 -39 45 -75 86
-36 41 -74 84 -85 96 -18 19 -125 138 -165 184 -8 10 -56 62 -106 116 -51 54
-104 113 -119 129 -86 94 -444 461 -636 652 -286 282 -329 324 -593 567 -60
56 -117 108 -125 116 -9 8 -95 84 -191 169 -96 85 -191 168 -210 185 -54 47
-162 140 -189 162 -13 10 -42 35 -65 54 -23 19 -64 54 -92 76 -40 34 -142 117
-314 257 -8 7 -35 28 -60 47 -25 19 -47 38 -50 41 -3 3 -36 30 -75 59 -139
107 -200 155 -205 160 -3 3 -21 17 -40 30 -19 13 -40 29 -46 35 -7 5 -22 18
-35 27 -13 9 -87 64 -164 121 -119 88 -359 261 -607 436 -66 46 -500 337 -603
403 -96 62 -374 237 -407 257 -15 9 -103 62 -196 118 -184 111 -272 163 -487
286 -186 106 -182 104 -325 182 -69 37 -154 83 -190 103 -353 193 -1005 512
-1465 717 -71 31 -150 66 -175 78 -95 42 -560 235 -665 276 -60 24 -119 47
-130 52 -162 72 -924 342 -1360 482 -266 85 -798 244 -877 262 -10 2 -59 15
-110 29 -128 34 -330 87 -348 91 -8 2 -62 15 -120 30 -58 14 -116 28 -130 31
-14 3 -59 14 -101 24 -42 11 -85 21 -95 23 -10 2 -30 7 -44 10 -188 48 -943
199 -1145 230 -16 3 -42 8 -56 12 -14 3 -39 8 -55 9 -16 2 -45 6 -64 9 -58 11
-235 40 -320 52 -14 2 -38 6 -55 9 -37 6 -169 25 -210 30 -16 2 -48 7 -70 10
-124 17 -203 28 -230 31 -16 2 -51 6 -77 9 -27 3 -69 8 -95 11 -27 3 -66 8
-88 10 -70 9 -118 15 -225 25 -58 6 -123 13 -145 15 -108 12 -201 20 -330 29
-49 4 -101 9 -115 11 -14 2 -72 7 -130 10 -58 3 -123 8 -145 10 -22 3 -92 7
-155 10 -63 3 -146 7 -185 10 -79 4 -276 13 -500 21 -148 5 -1063 13 -1068 8z"/>
</g>
</svg>
